<svg xmlns="http://www.w3.org/2000/svg" width="40" height="40"><path d="M14.102 13.816a1.698 1.698 0 00-2.434 2.368L15.566 20l-3.898 3.816A1.664 1.664 0 0011.172 25c0 .445.18.871.496 1.184a1.66 1.66 0 001.184.492c.441 0 .867-.176 1.183-.492l5-5c.313-.313.492-.739.492-1.184 0-.445-.18-.871-.492-1.184zm14.164 5l-5-5a1.676 1.676 0 00-2.368 0 1.676 1.676 0 000 2.368L24.734 20l-3.836 3.816A1.677 1.677 0 0020.406 25a1.677 1.677 0 002.86 1.184l5-5a1.669 1.669 0 00.066-2.368zm0 0" fill="#ccc" fill-rule="evenodd"/></svg>