<svg xmlns="http://www.w3.org/2000/svg" width="30" height="27"><path d="M9.395 9.582c.168-.219.34-.437.511-.656.434-.559.887-1.133 1.309-1.719.55-.75.512-1.098-.188-1.766a3.591 3.591 0 00-.183-.16c-.047-.039-.094-.082-.14-.12l-.552-.505c-.527-.48-1.07-.98-1.601-1.476-.406-.375-.809-.75-1.211-1.13-.535-.503-1.09-1.027-1.637-1.534-.617-.567-.969-.567-1.57.007-.57.543-1.149 1.098-1.707 1.637-.5.48-1.004.961-1.504 1.442a2.253 2.253 0 00-.516.734c-.117.281-.18.582-.176.883.004.476.063.953.176 1.414.293 1.262.914 2.394 1.516 3.488l.148.274c1.563 2.851 3.254 5.128 5.172 6.957.356.34.692.714 1.016 1.078.433.504.902.98 1.402 1.418a87.245 87.245 0 004.895 3.828c1.511 1.105 2.84 1.906 4.18 2.52.98.46 2.05.702 3.132.714.465 0 .926-.05 1.38-.144l.073-.016c.688-.14 1.403-.29 2-.773.297-.243.625-.461.938-.676l.492-.34c.145-.106.293-.203.441-.305.368-.23.715-.492 1.04-.781.902-.844.714-1.43.081-2.152-.687-.793-1.359-1.625-2.011-2.43-.258-.32-.516-.637-.778-.957-.203-.25-.406-.5-.609-.754-.39-.484-.793-.988-1.207-1.469-.781-.914-1.113-.945-2.086-.183-.672.523-1.348 1.062-2.004 1.586-.414.328-.828.66-1.238.988-.125.098-.258.187-.383.277l-.078.055c-.254-.266-.508-.531-.758-.8-2.566-2.712-5.223-5.516-8.12-8.016.03-.04.058-.07.085-.106.102-.121.188-.226.27-.332zm-1.68.797a4246.7 4246.7 0 015.394 5.855l2.54 2.758c.105.113.214.227.32.344.183.191.37.39.547.59.562.652 1.214.734 2.175.273a4.15 4.15 0 00.844-.586c.086-.07.172-.14.262-.21.668-.52 1.336-1.04 2.015-1.575l.747-.582 4.558 5.613a53.61 53.61 0 00-.695.504 20.14 20.14 0 01-1.973 1.317c-.539.3-1.222.398-1.875.468-1.387.157-2.644-.082-3.746-.703l-.21-.12c-1.095-.618-2.22-1.255-3.255-1.985a47.998 47.998 0 01-4.117-3.203 25.44 25.44 0 01-1.828-1.844c-.41-.445-.836-.902-1.277-1.332-1.137-1.11-2.204-2.445-3.368-4.215-1.03-1.566-1.824-3.207-2.46-4.61-.243-.53-.477-1.163-.395-1.824.016-.257.102-.503.25-.71.703-.809 1.441-1.61 2.156-2.387.203-.219.406-.442.61-.664C6.543 3.387 8.297 5.113 9.96 6.707a11 11 0 01-1.844 1.988c-.047.035-.09.067-.133.102-.09.066-.171.137-.254.21-.468.45-.472.872-.015 1.372zM23.602 2.54C21.215.96 18.367.167 14.648.042c-1.414-.059-3.656.402-4.925.86a2.322 2.322 0 00-.614.327c-.27.2-.347.48-.21.747.156.296.417.218.574.171.03-.007.062-.02.09-.023 1.753-.414 3.109-.598 4.39-.598h.02a18.64 18.64 0 014.183.5c3.258.746 5.801 2.325 7.778 4.832 1.78 2.258 2.437 4.82 2.011 7.829a8.525 8.525 0 01-.59 2.144c-.195.465-.218.855-.074 1.223a.7.7 0 00.157.277c.07.082.156.145.253.184a.491.491 0 00.184.03.774.774 0 00.39-.116c.337-.196.575-.496.755-.957 1.082-2.782 1.136-5.524.168-8.16-.997-2.704-2.875-4.981-5.586-6.774zm0 0" fill="#fff" fill-rule="evenodd"/><path d="M23.098 13.816c.12.168.308.375.59.375a.607.607 0 00.144-.015c.355-.086.422-.442.453-.61a4.133 4.133 0 00-.293-2.406 19.59 19.59 0 00-.8-1.66c-.778-1.43-1.598-2.422-2.583-3.117-2.02-1.426-3.738-2.113-5.57-2.219-.875-.055-1.57.059-2.191.352-.399.191-.391.472-.348.625.09.328.39.312.57.304a4.71 4.71 0 00.434-.035c.238-.027.476-.058.715-.09l.297-.035c.941.012 1.914.25 3.05.754 2.028.899 3.426 2.16 4.282 3.86.14.28.27.57.398.851.086.195.176.395.266.586.238.453.343.965.312 1.473-.039.359.059.718.274 1.007zm0 0" fill="#fff" fill-rule="evenodd"/></svg>